<svg width="50" height="50" viewBox="0 0 50 50" fill="none" xmlns="http://www.w3.org/2000/svg">
<rect width="50" height="50" rx="10" fill="#DAC7C7"/>
<path d="M25.0005 7C23.9499 6.99976 22.9096 7.20752 21.9389 7.61133C20.9683 8.01514 20.0863 8.60718 19.3434 9.35352C18.6004 10.0996 18.0111 10.9856 17.609 11.9607C17.207 12.9358 17 13.981 17 15.0364V19.0557C17.0244 21.1711 17.878 23.1914 19.3756 24.6787C20.1349 25.4329 21.5 26.4136 21.5 26.4136C21.5 26.4136 25.4031 29.8762 18 31.281C10.5969 32.6858 9.99093 38.1887 9.99998 46L10.0042 49.9966H40V46.0261C40 38.2151 39.4026 32.6851 32 31.2808C24.5974 29.8765 28.5 26.4136 28.5 26.4136C28.5 26.4136 29.8651 25.4329 30.6244 24.6787C32.122 23.1914 32.9756 21.1711 33 19.0557V15.0364C33 12.905 32.1572 10.8608 30.657 9.35376C29.1568 7.84668 27.1221 7 25.0005 7Z" fill="white"/>
</svg>
