<svg width="50" height="50" viewBox="0 0 50 50" fill="none" xmlns="http://www.w3.org/2000/svg">
<path d="M47.8435 33.9921C48.8682 32.6851 49.3596 31.284 49.2969 29.8411C49.2342 28.2518 48.5232 27.0075 47.9376 26.2442C48.6173 24.5504 48.8787 21.8841 46.6097 19.8139C44.9473 18.2978 42.1242 17.6182 38.2137 17.8064C35.4638 17.9318 33.1635 18.4442 33.0694 18.4651H33.0589C32.5361 18.5592 31.982 18.6742 31.4174 18.7997C31.3755 18.1305 31.4906 16.468 32.7243 12.7248C34.1882 8.2706 34.1045 4.86198 32.4525 2.5826C30.7168 0.188206 27.946 0 27.1305 0C26.3463 0 25.6248 0.324132 25.1125 0.920117C23.9519 2.26893 24.0878 4.75742 24.2342 5.90757C22.854 9.60895 18.9853 18.6847 15.7126 21.2045C15.6499 21.2463 15.5976 21.2986 15.5453 21.3509C14.5834 22.3651 13.9351 23.463 13.496 24.4249C12.8791 24.0903 12.1785 23.9021 11.4257 23.9021H5.04764C2.64279 23.9021 0.697998 25.8574 0.697998 28.2518V45.2426C0.697998 47.6474 2.65325 49.5922 5.04764 49.5922H11.4257C12.3563 49.5922 13.2241 49.2995 13.9351 48.7976L16.3923 49.0903C16.7687 49.1426 23.4604 49.9895 30.33 49.8536C31.5742 49.9477 32.7453 50 33.8327 50C35.7043 50 37.3354 49.8536 38.6947 49.5609C41.8942 48.8812 44.0794 47.522 45.1877 45.5249C46.0347 43.9983 46.0347 42.4822 45.8988 41.5203C47.9795 39.6382 48.3454 37.5575 48.2722 36.0937C48.2304 35.2468 48.0422 34.5253 47.8435 33.9921ZM5.04764 46.7691C4.20072 46.7691 3.52108 46.079 3.52108 45.2426V28.2413C3.52108 27.3944 4.21117 26.7148 5.04764 26.7148H11.4257C12.2727 26.7148 12.9523 27.4049 12.9523 28.2413V45.2321C12.9523 46.079 12.2622 46.7587 11.4257 46.7587H5.04764V46.7691ZM45.1668 32.7687C44.7277 33.2288 44.644 33.9293 44.9786 34.473C44.9786 34.4835 45.4073 35.2154 45.4596 36.2192C45.5328 37.5889 44.8741 38.8018 43.4939 39.8369C43.0025 40.2133 42.8038 40.8616 43.0129 41.4471C43.0129 41.4575 43.4625 42.8377 42.7306 44.1447C42.0301 45.3994 40.4722 46.2986 38.1091 46.8005C36.2166 47.2083 33.6445 47.2815 30.4868 47.0305C30.445 47.0305 30.3927 47.0305 30.3404 47.0305C23.6173 47.1769 16.821 46.2986 16.7478 46.2882H16.7373L15.6813 46.1627C15.744 45.8699 15.7754 45.5563 15.7754 45.2426V28.2413C15.7754 27.7917 15.7022 27.3526 15.5767 26.9448C15.7649 26.2443 16.2877 24.6863 17.5215 23.3584C22.2162 19.6361 26.8063 7.07863 27.005 6.53492C27.0886 6.31535 27.1095 6.07486 27.0677 5.83438C26.89 4.66332 26.9527 3.23087 27.2036 2.80217C27.7578 2.81263 29.253 2.96947 30.1522 4.21372C31.2187 5.688 31.1769 8.32288 30.0267 11.8151C28.2701 17.1372 28.1238 19.9394 29.5144 21.1731C30.2045 21.79 31.1246 21.8214 31.7938 21.5809C32.4316 21.4345 33.038 21.3091 33.6131 21.215C33.6549 21.2045 33.7072 21.1941 33.749 21.1836C36.959 20.4831 42.7097 20.0544 44.7068 21.8737C46.4006 23.4212 45.1982 25.4705 45.0623 25.6901C44.6754 26.2756 44.7904 27.0389 45.3132 27.5094C45.3237 27.5199 46.4215 28.555 46.4738 29.9456C46.5156 30.8762 46.0765 31.8277 45.1668 32.7687Z" fill="#2E2F22"/>
<path d="M5.04755 46.7692C4.20063 46.7692 3.521 46.0791 3.521 45.2426V28.2414C3.521 27.3945 4.21108 26.7148 5.04755 26.7148H11.4256C12.2726 26.7148 12.9522 27.4049 12.9522 28.2414V45.2322C12.9522 46.0791 12.2621 46.7588 11.4256 46.7588H5.04755V46.7692ZM45.1668 32.7688C44.7276 33.2288 44.644 33.9294 44.9785 34.4731C44.9785 34.4835 45.4072 35.2155 45.4595 36.2192C45.5327 37.5889 44.874 38.8018 43.4938 39.837C43.0024 40.2134 42.8037 40.8616 43.0128 41.4472C43.0128 41.4576 43.4624 42.8378 42.7305 44.1448C42.03 45.3995 40.4721 46.2987 38.109 46.8006C36.2165 47.2084 33.6444 47.2815 30.4867 47.0306C30.4449 47.0306 30.3926 47.0306 30.3403 47.0306C23.6172 47.177 16.8209 46.2987 16.7477 46.2882H16.7372L15.6812 46.1628C15.7439 45.87 15.7753 45.5563 15.7753 45.2426V28.2414C15.7753 27.7918 15.7021 27.3526 15.5766 26.9449C15.7648 26.2443 16.2876 24.6864 17.5214 23.3585C22.2161 19.6362 26.8062 7.0787 27.0049 6.53499C27.0885 6.31542 27.1095 6.07494 27.0676 5.83445C26.8899 4.66339 26.9526 3.23094 27.2036 2.80225C27.7577 2.8127 29.2529 2.96954 30.1521 4.21379C31.2186 5.68807 31.1768 8.32295 30.0266 11.8152C28.2701 17.1373 28.1237 19.9394 29.5143 21.1732C30.2044 21.7901 31.1245 21.8215 31.7937 21.581C32.4315 21.4346 33.0379 21.3091 33.613 21.215C33.6548 21.2046 33.7071 21.1941 33.7489 21.1837C36.9589 20.4831 42.7096 20.0544 44.7067 21.8738C46.4005 23.4212 45.1981 25.4706 45.0622 25.6902C44.6753 26.2757 44.7903 27.039 45.3131 27.5095C45.3236 27.5199 46.4215 28.5551 46.4737 29.9457C46.5156 30.8763 46.0764 31.8278 45.1668 32.7688Z" fill="#ECE1E1"/>
</svg>
